<?xml version="1.0" encoding="iso-8859-1"?>
<!-- Generator: Adobe Illustrator 19.0.0, SVG Export Plug-In . SVG Version: 6.00 Build 0)  -->
<svg xmlns="http://www.w3.org/2000/svg" xmlns:xlink="http://www.w3.org/1999/xlink" version="1.1" id="Layer_1" x="0px" y="0px" viewBox="0 0 267 267" style="enable-background:new 0 0 267 267;" xml:space="preserve" width="512" height="512">
<g>
	<g>
		<g>
			<g>
				<line style="fill:#FFFFFF;" x1="83.5" y1="15" x2="83.5" y2="44"/>
				<path style="fill:#165C6C;" d="M83.5,59c-8.284,0-15-6.716-15-15V15c0-8.284,6.716-15,15-15s15,6.716,15,15v29      C98.5,52.284,91.784,59,83.5,59z"/>
			</g>
			<g>
				<line style="fill:#FFFFFF;" x1="133.5" y1="15" x2="133.5" y2="44"/>
				<path style="fill:#1C7287;" d="M133.5,59c-8.284,0-15-6.716-15-15V15c0-8.284,6.716-15,15-15s15,6.716,15,15v29      C148.5,52.284,141.784,59,133.5,59z"/>
				<path style="fill:#165C6C;" d="M133.5,59c-8.284,0-15-6.716-15-15V15c0-8.284,6.716-15,15-15C133.5,0,133.5,56,133.5,59z"/>
			</g>
			<g>
				<line style="fill:#FFFFFF;" x1="183.5" y1="15" x2="183.5" y2="44"/>
				<path style="fill:#1C7287;" d="M183.5,59c-8.284,0-15-6.716-15-15V15c0-8.284,6.716-15,15-15s15,6.716,15,15v29      C198.5,52.284,191.784,59,183.5,59z"/>
			</g>
		</g>
		<g>
			<g>
				<line style="fill:#FFFFFF;" x1="83.5" y1="223" x2="83.5" y2="252"/>
				<path style="fill:#165C6C;" d="M83.5,267c-8.284,0-15-6.716-15-15v-29c0-8.284,6.716-15,15-15s15,6.716,15,15v29      C98.5,260.284,91.784,267,83.5,267z"/>
			</g>
			<g>
				<line style="fill:#FFFFFF;" x1="133.5" y1="223" x2="133.5" y2="252"/>
				<path style="fill:#1C7287;" d="M133.5,267c-8.284,0-15-6.716-15-15v-29c0-8.284,6.716-15,15-15s15,6.716,15,15v29      C148.5,260.284,141.784,267,133.5,267z"/>
				<path style="fill:#165C6C;" d="M133.5,267c-8.284,0-15-6.716-15-15v-29c0-8.284,6.716-15,15-15V267z"/>
			</g>
			<g>
				<line style="fill:#FFFFFF;" x1="183.5" y1="223" x2="183.5" y2="252"/>
				<path style="fill:#1C7287;" d="M183.5,267c-8.284,0-15-6.716-15-15v-29c0-8.284,6.716-15,15-15s15,6.716,15,15v29      C198.5,260.284,191.784,267,183.5,267z"/>
			</g>
		</g>
	</g>
	<g>
		<g>
			<g>
				<line style="fill:#FFFFFF;" x1="45.5" y1="83" x2="16.5" y2="83"/>
				<path style="fill:#165C6C;" d="M45.5,98h-29c-8.284,0-15-6.716-15-15s6.716-15,15-15h29c8.284,0,15,6.716,15,15      S53.784,98,45.5,98z"/>
			</g>
			<g>
				<line style="fill:#FFFFFF;" x1="45.5" y1="133" x2="16.5" y2="133"/>
				<path style="fill:#165C6C;" d="M45.5,148h-29c-8.284,0-15-6.716-15-15s6.716-15,15-15h29c8.284,0,15,6.716,15,15      S53.784,148,45.5,148z"/>
			</g>
			<g>
				<line style="fill:#FFFFFF;" x1="46.5" y1="183" x2="17.5" y2="183"/>
				<path style="fill:#165C6C;" d="M46.5,198h-29c-8.284,0-15-6.716-15-15s6.716-15,15-15h29c8.284,0,15,6.716,15,15      S54.784,198,46.5,198z"/>
			</g>
		</g>
		<g>
			<g>
				<line style="fill:#FFFFFF;" x1="249.5" y1="83" x2="220.5" y2="83"/>
				<path style="fill:#1C7287;" d="M249.5,98h-29c-8.284,0-15-6.716-15-15s6.716-15,15-15h29c8.284,0,15,6.716,15,15      S257.784,98,249.5,98z"/>
			</g>
			<g>
				<line style="fill:#FFFFFF;" x1="249.5" y1="133" x2="220.5" y2="133"/>
				<path style="fill:#1C7287;" d="M249.5,148h-29c-8.284,0-15-6.716-15-15s6.716-15,15-15h29c8.284,0,15,6.716,15,15      S257.784,148,249.5,148z"/>
			</g>
			<g>
				<line style="fill:#FFFFFF;" x1="250.5" y1="183" x2="221.5" y2="183"/>
				<path style="fill:#1C7287;" d="M250.5,198h-29c-8.284,0-15-6.716-15-15s6.716-15,15-15h29c8.284,0,15,6.716,15,15      S258.784,198,250.5,198z"/>
			</g>
		</g>
	</g>
	<g>
		<path style="fill:#C4C8C4;" d="M53.807,30.726h159.386c12.5,0,22.633,10.133,22.633,22.633v159.386    c0,12.5-10.133,22.633-22.633,22.633H53.807c-12.5,0-22.633-10.133-22.633-22.633V53.36C31.174,40.86,41.307,30.726,53.807,30.726    z"/>
	</g>
	<g>
		<path style="fill:#A5A9A6;" d="M53.807,30.726H133.5v204.652H53.807c-12.5,0-22.633-10.133-22.633-22.633V53.36    C31.174,40.86,41.307,30.726,53.807,30.726z"/>
	</g>
	<path style="fill:#1C7287;" d="M106.54,90.04h53.921c8.837,0,16,7.163,16,16v53.921c0,8.837-7.163,16-16,16H106.54   c-8.837,0-16-7.163-16-16V106.04C90.54,97.203,97.703,90.04,106.54,90.04z"/>
	<path style="fill:#165C6C;" d="M106.54,90.04h26.96v85.921h-26.96c-8.837,0-16-7.163-16-16V106.04   C90.54,97.203,97.703,90.04,106.54,90.04z"/>
</g>















</svg>
